<svg width="171.998962" height="48.708984" viewBox="0 0 171.999 48.709" fill="none" xmlns="http://www.w3.org/2000/svg" xmlns:xlink="http://www.w3.org/1999/xlink">
	<desc>
			Created with Pixso.
	</desc>
	<defs/>
	<path id="Reddy." d="M66.1248 33.902C68.0008 36.2693 70.7478 37.453 74.3658 37.453C75.8398 37.453 77.3138 37.118 78.7878 36.448C80.3065 35.778 81.6688 34.84 82.8748 33.634C83.3661 35.242 84.2148 36.4927 85.4208 37.386C87.4755 37.118 89.2622 36.314 90.7808 34.974C89.7535 33.902 89.0612 32.9193 88.7038 32.026C88.3465 31.088 88.1678 29.8373 88.1678 28.274C88.1678 15.008 88.4358 5.58333 88.9718 -3.8147e-06C87.5872 -3.8147e-06 86.3142 0.11166 85.1528 0.334995C84.0362 0.51366 82.8302 0.848663 81.5348 1.34C82.1155 3.52866 82.5398 6.85633 82.8078 11.323C80.3512 9.53633 77.6488 8.643 74.7008 8.643C70.9488 8.643 68.1125 9.87133 66.1918 12.328C64.3158 14.7847 63.3778 18.425 63.3778 23.249C63.3778 27.939 64.2935 31.49 66.1248 33.902ZM99.6248 33.902C101.501 36.2693 104.248 37.453 107.866 37.453C109.34 37.453 110.814 37.118 112.288 36.448C113.806 35.778 115.169 34.84 116.375 33.634C116.866 35.242 117.715 36.4927 118.921 37.386C120.975 37.118 122.762 36.314 124.281 34.974C123.253 33.902 122.561 32.9193 122.204 32.026C121.846 31.088 121.668 29.8373 121.668 28.274C121.668 15.008 121.936 5.58333 122.472 -3.8147e-06C121.087 -3.8147e-06 119.814 0.11166 118.653 0.334995C117.536 0.51366 116.33 0.848663 115.035 1.34C115.615 3.52866 116.04 6.85633 116.308 11.323C113.851 9.53633 111.149 8.643 108.201 8.643C104.449 8.643 101.612 9.87133 99.6918 12.328C97.8158 14.7847 96.8778 18.425 96.8778 23.249C96.8778 27.939 97.7935 31.49 99.6248 33.902ZM0.402009 36.649C1.83134 36.917 3.08201 37.051 4.15401 37.051C5.44934 37.051 6.70001 36.917 7.90601 36.649C7.23601 34.6837 6.87868 30.485 6.83401 24.053C7.41467 24.2317 8.21867 24.3657 9.24601 24.455Q10.854 24.589 12.194 24.589C12.8193 24.589 13.2213 24.5667 13.4 24.522Q18.291 33.433 19.698 37.051C21.2613 37.051 22.6683 36.9393 23.919 36.716Q24.662 36.6135 25.3853 36.4327Q26.5537 36.1406 27.671 35.644C25.6163 33.9913 22.8693 29.7927 19.43 23.048Q22.6043 21.558 24.3379 19.0659Q24.3973 18.9805 24.455 18.894C25.661 17.1073 26.264 15.075 26.264 12.797Q26.264 8.50935 24.2132 5.7408Q23.5401 4.83207 22.646 4.087C20.234 2.03233 16.7947 1.005 12.328 1.005C10.0053 1.005 7.70501 1.18366 5.42701 1.541C3.19368 1.85366 1.38468 2.278 8.58307e-06 2.814C0.759342 4.51133 1.13901 9.045 1.13901 16.415Q1.13901 21.172 0.871008 27.269C0.737009 31.3337 0.580675 34.4603 0.402009 36.649ZM17.2175 19.2015Q15.9029 20.4285 14.137 21.172Q11.524 21.172 6.83401 19.497C6.92334 13.6457 7.07968 9.08966 7.30301 5.829C8.41967 5.51633 9.62568 5.36 10.921 5.36Q15.9404 5.36 18.1536 7.85213Q19.899 9.81755 19.899 13.333Q19.899 14.6068 19.5169 15.7533Q19.1151 16.9585 18.291 18.023Q17.7983 18.6594 17.2175 19.2015ZM35.2373 33.902C37.158 36.2247 39.905 37.386 43.4783 37.386Q44.4802 37.386 45.4667 37.2627Q48.0425 36.9407 50.5133 35.778C52.836 34.6613 54.6896 33.2097 56.0743 31.423L55.6053 30.15C54.444 30.9093 53.037 31.5123 51.3843 31.959C49.7763 32.361 48.0566 32.562 46.2253 32.562C43.858 32.562 42.049 31.959 40.7983 30.753C39.5923 29.5023 38.8553 27.5147 38.5873 24.79Q43.4783 24.656 48.5033 24.053C51.8533 23.6063 54.712 23.0927 57.0793 22.512C57.0793 17.956 56.1413 14.5167 54.2653 12.194C52.434 9.82666 49.7316 8.643 46.1583 8.643C43.4783 8.643 41.0886 9.29066 38.9893 10.586C36.9346 11.8813 35.3266 13.6903 34.1653 16.013C33.004 18.291 32.4233 20.904 32.4233 23.852Q32.4233 30.351 35.2373 33.902ZM130.847 45.962Q135.001 48.709 141.768 48.709C146.011 48.709 149.406 47.6817 151.952 45.627C154.498 43.617 155.771 40.6243 155.771 36.649C155.771 36.381 155.726 35.2197 155.637 33.165C155.547 31.0657 155.503 28.4973 155.503 25.46C155.503 17.9113 155.659 12.328 155.972 8.71C153.202 8.71 150.723 9.15666 148.535 10.05C148.937 10.8987 149.249 12.1493 149.473 13.802Q149.808 16.281 149.808 19.43C149.808 20.2787 149.83 21.0603 149.875 21.775L150.009 29.614C148.222 30.7753 146.033 31.356 143.443 31.356C141.79 31.356 140.606 30.9763 139.892 30.217Q138.82 29.011 138.82 26.331C138.82 17.1743 138.954 11.3007 139.222 8.71Q136.944 8.71 135.336 9.045C134.264 9.22366 133.102 9.55866 131.852 10.05C132.656 11.8367 133.058 15.008 133.058 19.564L132.924 23.517L132.79 26.8C132.79 30.954 133.973 33.701 136.341 35.041C132.678 38.4357 130.847 42.076 130.847 45.962ZM45.0193 21.574C42.8753 22.0653 40.6866 22.4227 38.4533 22.646Q38.4533 18.827 39.6593 15.879C40.508 13.9137 41.6246 12.529 43.0093 11.725C45.064 11.725 46.739 12.4843 48.0343 14.003C49.3743 15.5217 50.0666 17.4647 50.1113 19.832C48.8606 20.4573 47.1633 21.038 45.0193 21.574ZM79.2568 33.165C78.1402 33.701 77.0682 34.036 76.0408 34.17C73.9415 33.8127 72.3112 32.7183 71.1498 30.887Q69.4078 28.14 69.4078 23.517C69.4078 20.3903 70.0332 18.0007 71.2838 16.348Q71.9561 15.4596 72.8349 14.8896Q74.4083 13.869 76.6438 13.869C79.0112 13.869 81.0658 14.4273 82.8078 15.544C82.8078 17.6433 82.7632 20.5243 82.6738 24.187C82.5845 27.4923 82.5398 29.8373 82.5398 31.222C81.5125 31.9813 80.4182 32.629 79.2568 33.165ZM112.757 33.165C111.64 33.701 110.568 34.036 109.541 34.17C107.441 33.8127 105.811 32.7183 104.65 30.887Q102.908 28.14 102.908 23.517C102.908 20.3903 103.533 18.0007 104.784 16.348Q105.456 15.4596 106.335 14.8896Q107.908 13.869 110.144 13.869C112.511 13.869 114.566 14.4273 116.308 15.544C116.308 17.6433 116.263 20.5243 116.174 24.187C116.084 27.4923 116.04 29.8373 116.04 31.222C115.012 31.9813 113.918 32.629 112.757 33.165ZM147.999 42.813C146.703 44.3317 144.827 45.091 142.371 45.091C141.031 45.091 139.735 44.823 138.485 44.287C137.279 43.7957 136.274 43.1257 135.47 42.277C135.872 40.1777 136.966 38.056 138.753 35.912C139.557 36.0013 140.182 36.046 140.629 36.046C142.415 36.046 144.09 35.6887 145.654 34.974C147.262 34.2593 148.713 33.232 150.009 31.892L150.009 35.041Q150.009 40.602 147.999 42.813Z" fill="#3D3A38" fill-opacity="1.000000" fill-rule="evenodd"/>
	<path id="Reddy." d="M164.897 35.1076Q166.103 36.3138 167.175 37.654C168.783 36.3587 170.391 34.7507 171.999 32.83C169.989 31.0433 168.381 29.413 167.175 27.939Q164.428 30.15 162.351 32.83Q163.691 33.9018 164.897 35.1076Z" fill="#A58C81" fill-opacity="1.000000" fill-rule="evenodd"/>
</svg>
